# Blender v2.80 (sub 75) OBJ File: 'untitled.blend'
# www.blender.org
mtllib PC Screen.mtl
o Cube
v -0.071905 0.858210 -1.837356
v -0.085118 1.014973 -1.680593
v 0.006892 0.822082 -1.678411
v -0.071905 -1.014973 -1.680593
v -0.071905 -0.858210 -1.837356
v 0.006892 -0.822082 -1.678411
v 0.006892 0.822082 1.678411
v -0.085118 1.014973 1.680593
v -0.071905 0.858210 1.837356
v 0.006892 -0.822082 1.678411
v -0.071905 -0.858210 1.837356
v -0.071905 -1.014973 1.680593
v 0.071905 0.858210 -1.837356
v -0.194612 0.858210 -1.680593
v 0.071905 1.014973 -1.680593
v -0.181400 -0.858210 -1.680593
v 0.071905 -0.858210 -1.837356
v 0.071905 -1.014973 -1.680593
v -0.194612 0.858210 1.680593
v 0.071905 0.858210 1.837356
v 0.071905 1.014973 1.680593
v 0.071905 -1.014973 1.680593
v 0.071905 -0.858210 1.837356
v -0.181400 -0.858210 1.680593
v 0.084857 0.858210 -1.680593
v 0.084857 -0.858210 -1.680593
v 0.084857 -0.858210 1.680593
v 0.084857 0.858210 1.680593
v 0.084857 0.858210 -1.680593
v 0.084857 -0.858210 -1.680593
v 0.084857 -0.858210 1.680593
v 0.084857 0.858210 1.680593
v -0.341569 -1.652658 -0.221068
v -0.789297 -1.652658 -0.221068
v -0.341569 -1.652658 0.221068
v -0.789297 -1.652658 0.221068
v -0.297496 -1.627020 -1.312475
v 0.297496 -1.627020 -1.312474
v 0.297496 -1.627020 1.312475
v -0.297496 -1.627020 1.312475
v -0.800133 -1.746438 -1.146426
v -0.832849 -1.628261 -0.913246
v 0.832849 -1.628261 -0.913246
v 0.800132 -1.746438 -1.146426
v 0.800133 -1.746438 1.146426
v 0.832849 -1.628261 0.913246
v -0.800133 -1.746438 1.146426
v -0.832849 -1.628261 0.913246
v -0.127293 -0.197718 -0.221068
v -0.227919 0.238555 -0.221068
v -0.127293 -0.197718 0.221068
v -0.227919 0.238555 0.221068
v -1.335896 -0.817786 -0.221068
v -0.888168 -0.817786 -0.221068
v -1.335896 -0.817786 0.221068
v -0.888168 -0.817786 0.221068
vt 0.605921 0.760665
vt 0.394079 0.760665
vt 0.394079 0.989335
vt 0.605921 0.989335
vt 0.394306 0.510665
vt 0.605694 0.510665
vt 0.605694 0.739335
vt 0.394306 0.739335
vt 0.394306 0.480921
vt 0.605694 0.480921
vt 0.605694 0.269079
vt 0.394306 0.269079
vt 0.605921 0.010665
vt 0.394079 0.010665
vt 0.394079 0.239335
vt 0.605921 0.239335
vt 0.855694 0.519079
vt 0.875000 0.519079
vt 0.855694 0.750000
vt 0.394079 0.750000
vt 0.625000 0.760665
vt 0.355694 0.739335
vt 0.375000 0.739335
vt 0.355694 0.750000
vt 0.144306 0.739335
vt 0.144306 0.750000
vt 0.125000 0.739335
vt 0.855694 0.730921
vt 0.855694 0.500000
vt 0.875000 0.730921
vt 0.394306 0.750000
vt 0.375000 0.739335
vt 0.605694 0.500000
vt 0.625000 0.510665
vt 0.605921 1.000000
vt 0.375000 0.989335
vt 0.375000 0.760665
vt 0.605921 0.750000
vt 0.355694 0.510665
vt 0.144306 0.510665
vt 0.144306 0.500000
vt 0.355694 0.500000
vt 0.394306 0.250000
vt 0.605694 0.250000
vt 0.644306 0.730921
vt 0.644306 0.500000
vt 0.394079 0.250000
vt 0.605921 0.250000
vt 0.375000 0.239335
vt 0.375000 0.010665
vt 0.394079 1.000000
vt 0.625000 0.010665
vt 0.625000 0.239335
vt 0.605921 0.000000
vt 0.394079 0.000000
vt 0.625000 0.989335
vt 0.644306 0.519079
vt 0.355694 0.510665
vt 0.355694 0.510665
vt 0.355694 0.510665
vt 0.144306 0.739335
vt 0.144306 0.739335
vt 0.144306 0.739335
vt 0.355694 0.739335
vt 0.144306 0.510665
vt 0.355425 0.510813
vt 0.144575 0.510813
vt 0.144575 0.739187
vt 0.355425 0.739187
vt 1.000000 1.000000
vt 0.000000 1.000000
vt 0.000000 1.000000
vt 1.000000 1.000000
vt 0.000000 0.000000
vt 1.000000 0.000000
vt 1.000000 0.000000
vt 0.000000 0.000000
vt 0.000000 0.000000
vt 0.000000 1.000000
vt 1.000000 1.000000
vt 1.000000 0.000000
vt 0.083576 0.077357
vt 0.083576 0.922643
vt 0.916424 0.922643
vt 0.916424 0.077357
vt 0.000000 0.000000
vt 1.000000 0.000000
vt 1.000000 1.000000
vt 0.000000 1.000000
vt 1.000000 1.000000
vt 0.000000 1.000000
vt 0.000000 0.000000
vt 1.000000 0.000000
vn 0.0000 1.0000 -0.0000
vn -1.0000 -0.0077 0.0000
vn 0.0000 0.0000 -1.0000
vn 0.0000 -1.0000 0.0000
vn 0.5612 0.6084 -0.5612
vn 0.5774 -0.5774 -0.5773
vn 0.5612 0.6084 0.5612
vn 0.5773 -0.5774 0.5774
vn -0.3840 0.6529 -0.6529
vn -0.4009 -0.6478 -0.6478
vn -0.3840 0.6529 0.6529
vn -0.4009 -0.6478 0.6478
vn -0.5262 -0.8503 0.0000
vn 0.0000 0.7071 0.7071
vn 0.7071 0.0000 -0.7071
vn -0.5165 -0.0020 0.8563
vn 0.7071 0.0000 0.7071
vn -0.5165 -0.0020 -0.8563
vn 0.0000 -0.7071 -0.7071
vn 0.6780 0.7351 0.0000
vn 0.0000 0.7071 -0.7071
vn -0.5070 0.8620 0.0000
vn 0.0000 -0.7071 0.7071
vn 0.7071 -0.7071 0.0000
vn 0.0000 0.0000 1.0000
vn 0.0280 0.0000 0.9996
vn 0.0280 0.0000 -0.9996
vn 0.4204 -0.9073 0.0000
vn 0.4204 0.9073 -0.0000
vn 0.0000 -0.8119 -0.5839
vn 0.0000 -0.8119 0.5839
vn 0.2311 0.9729 -0.0000
vn -0.9638 0.2668 0.0000
vn 0.0000 -0.8920 -0.4521
vn 0.9638 0.2668 0.0000
vn 0.0000 -0.8920 0.4521
vn -0.2311 0.9729 0.0000
vn 0.9744 0.2247 0.0000
vn -0.6900 0.7238 0.0000
vn 0.6317 -0.7752 0.0000
vn 0.8366 0.5478 0.0000
vn -0.8366 -0.5478 0.0000
vn 1.0000 0.0000 0.0000
usemtl Plastic
s off
f 18/1/1 4/2/1 12/3/1 22/4/1
f 24/5/2 19/6/2 14/7/2 16/8/2
f 11/9/3 9/10/3 20/11/3 23/12/3
f 2/13/4 15/14/4 21/15/4 8/16/4
f 1/17/5 2/18/5 25/19/5
f 4/2/6 5/20/6 26/21/6
f 28/22/7 8/23/7 9/24/7
f 27/25/8 11/26/8 12/27/8
f 13/28/9 14/29/9 15/30/9
f 16/8/10 17/31/10 18/32/10
f 19/6/11 20/33/11 21/34/11
f 22/4/12 23/35/12 24/36/12
f 18/1/13 22/4/13 24/36/13 16/37/13
f 4/2/14 18/1/14 17/38/14 5/20/14
f 25/39/15 26/40/15 5/41/15 1/42/15
f 23/12/16 20/11/16 19/6/16 24/5/16
f 9/10/17 11/9/17 27/43/17 28/44/17
f 13/28/18 17/45/18 16/46/18 14/29/18
f 8/16/19 21/15/19 20/47/19 9/48/19
f 2/13/20 8/16/20 28/49/20 25/50/20
f 22/4/21 12/3/21 11/51/21 23/35/21
f 21/15/22 15/14/22 14/52/22 19/53/22
f 15/14/23 2/13/23 1/54/23 13/55/23
f 12/3/24 4/2/24 26/21/24 27/56/24
f 17/45/25 13/28/25 1/17/25 5/57/25
f 29/58/25 30/59/25 26/60/25 25/39/25
f 31/61/25 32/62/25 28/63/25 27/25/25
f 32/64/25 29/58/25 25/39/25 28/22/25
f 30/65/25 31/61/25 27/25/25 26/40/25
f 3/66/26 6/67/26 30/65/26 29/58/26
f 10/68/27 7/69/27 32/64/27 31/61/27
f 7/69/28 3/66/28 29/58/28 32/64/28
f 6/67/29 10/68/29 31/61/29 30/65/29
f 44/70/30 41/71/30 37/72/30 38/73/30
f 47/74/31 45/75/31 39/76/31 40/77/31
f 45/75/32 44/70/32 38/73/32 39/76/32
f 36/78/4 34/79/4 33/80/4 35/81/4
f 48/82/4 42/83/4 43/84/4 46/85/4
f 46/85/33 43/84/33 44/70/33 45/75/33
f 48/82/34 46/85/34 45/75/34 47/74/34
f 42/83/35 48/82/35 47/74/35 41/71/35
f 43/84/36 42/83/36 41/71/36 44/70/36
f 41/71/37 47/74/37 40/77/37 37/72/37
f 52/86/38 51/87/38 49/88/38 50/89/38
f 54/90/3 53/91/3 50/89/3 49/88/3
f 53/91/39 55/92/39 52/86/39 50/89/39
f 55/92/25 56/93/25 51/87/25 52/86/25
f 56/93/40 54/90/40 49/88/40 51/87/40
f 35/81/41 33/80/41 54/90/41 56/93/41
f 36/78/25 35/81/25 56/93/25 55/92/25
f 34/79/42 36/78/42 55/92/42 53/91/42
f 33/80/3 34/79/3 53/91/3 54/90/3
usemtl Material.001
f 6/67/43 3/66/43 7/69/43 10/68/43
o Plane
v -0.206087 -0.498486 0.576404
v -0.213199 -0.498486 -0.576404
v -0.213268 0.498486 0.576404
v -0.220380 0.498486 -0.576404
v -0.106055 -0.497765 0.575787
v -0.279471 -0.327867 0.405710
v -0.113167 -0.497765 -0.577021
v -0.284471 -0.327867 -0.404833
v -0.284187 0.326843 0.405710
v -0.113236 0.499206 0.575787
v -0.120348 0.499206 -0.577021
v -0.289187 0.326843 -0.404833
vt 0.000000 0.000000
vt 0.000000 1.000000
vt 1.000000 1.000000
vt 1.000000 0.000000
vt 0.999999 0.000000
vt 0.000000 0.000000
vt 0.148448 0.171651
vt 0.851552 0.171651
vt 0.851552 0.828349
vt 0.148448 0.828349
vt 1.000000 1.000000
vt 0.000000 1.000000
vn -1.0000 -0.0072 0.0062
vn 0.0072 -1.0000 -0.0000
vn 1.0000 0.0072 -0.0062
vn -0.0062 -0.0000 -1.0000
vn -0.0072 1.0000 0.0000
vn 0.7027 0.0051 -0.7115
vn 0.7020 0.7122 -0.0043
vn 0.7114 0.0051 0.7027
vn 0.7122 -0.7020 -0.0044
vn 0.0062 0.0000 1.0000
usemtl Material
s off
f 57/94/44 59/95/44 60/96/44 58/97/44
f 57/94/45 58/97/45 63/98/45 61/99/45
f 62/100/46 64/101/46 68/102/46 65/103/46
f 58/97/47 60/96/47 67/104/47 63/98/47
f 60/96/48 59/95/48 66/105/48 67/104/48
f 66/105/49 61/99/49 62/100/49 65/103/49
f 61/99/50 63/98/50 64/101/50 62/100/50
f 63/98/51 67/104/51 68/102/51 64/101/51
f 67/104/52 66/105/52 65/103/52 68/102/52
f 59/95/53 57/94/53 61/99/53 66/105/53
